PathFileType	3	(X/Y/Z)	results
DataRate	CameraRate	NumFrames	NumMarkers	Units	OrigDataRate	OrigDataStartFrame	OrigNumFrames
30.0	30.0	4	85	mm	30.0	47	369
Frame#	Time	head			nose			neck			shoulder_r			elbow_r			wrist_r			shoulder_l			elbow_l			wrist_l			hip_r			knee_r			ankle_r			hip_l			knee_l			ankle_l			heel_r			heel_l			mtoe_r			ltoe_r			mtoe_l			ltoe_l			asis_l			asis_r			psi_r			psi_l			mhnd_r			lhnd_r			mhnd_l			lhnd_l			l_lat_knee			r_med_wrist			l_lat_ankle			r_med_ankle			r_lat_knee			xiphoid			l_med_ankle			r_med_knee			l_med_elbow			navel			r_lat_elbow			r_lat_wrist			l_med_wrist			l_lat_elbow			l_med_knee			r_med_elbow			r_lat_ankle			l_lat_wrist			chin			T10			r_eye			l_eye			l_ear			r_ear			spinal_cord_8			spinal_cord_12			spinal_cord_27			spinal_cord_33			up_arm_r_0			up_arm_r_5			up_arm_l_0			up_arm_l_5			front_torso_11			front_torso_7			front_torso_4			front_torso_1			front_torso_10			thigh_r_2			thigh_r_3			thigh_l_1			thigh_l_5			shank_l_0			shank_l_4			shank_r_1			shank_r_2			foot_r_1			foot_r_3			foot_r_5			foot_r_6			foot_r_7			foot_l_1			foot_l_7			foot_l_0			foot_l_4			foot_l_5			foot_l_6			
		X1	Y1	Z1	X2	Y2	Z2	X3	Y3	Z3	X4	Y4	Z4	X5	Y5	Z5	X6	Y6	Z6	X7	Y7	Z7	X8	Y8	Z8	X9	Y9	Z9	X10	Y10	Z10	X11	Y11	Z11	X12	Y12	Z12	X13	Y13	Z13	X14	Y14	Z14	X15	Y15	Z15	X16	Y16	Z16	X17	Y17	Z17	X18	Y18	Z18	X19	Y19	Z19	X20	Y20	Z20	X21	Y21	Z21	X22	Y22	Z22	X23	Y23	Z23	X24	Y24	Z24	X25	Y25	Z25	X26	Y26	Z26	X27	Y27	Z27	X28	Y28	Z28	X29	Y29	Z29	X30	Y30	Z30	X31	Y31	Z31	X32	Y32	Z32	X33	Y33	Z33	X34	Y34	Z34	X35	Y35	Z35	X36	Y36	Z36	X37	Y37	Z37	X38	Y38	Z38	X39	Y39	Z39	X40	Y40	Z40	X41	Y41	Z41	X42	Y42	Z42	X43	Y43	Z43	X44	Y44	Z44	X45	Y45	Z45	X46	Y46	Z46	X47	Y47	Z47	X48	Y48	Z48	X49	Y49	Z49	X50	Y50	Z50	X51	Y51	Z51	X52	Y52	Z52	X53	Y53	Z53	X54	Y54	Z54	X55	Y55	Z55	X56	Y56	Z56	X57	Y57	Z57	X58	Y58	Z58	X59	Y59	Z59	X60	Y60	Z60	X61	Y61	Z61	X62	Y62	Z62	X63	Y63	Z63	X64	Y64	Z64	X65	Y65	Z65	X66	Y66	Z66	X67	Y67	Z67	X68	Y68	Z68	X69	Y69	Z69	X70	Y70	Z70	X71	Y71	Z71	X72	Y72	Z72	X73	Y73	Z73	X74	Y74	Z74	X75	Y75	Z75	X76	Y76	Z76	X77	Y77	Z77	X78	Y78	Z78	X79	Y79	Z79	X80	Y80	Z80	X81	Y81	Z81	X82	Y82	Z82	X83	Y83	Z83	X84	Y84	Z84	X85	Y85	Z85	
47	1.5666666666666667	68.10828184343755	1596.7602479395339	-274.142101666883	52.49986800677905	1435.1934367571157	-414.76284950065656	58.56403771186023	1279.0244230525839	-275.4706616992187	211.5115663248484	1246.5247960769682	-284.49315181445155	249.69268283900985	1036.8162028429792	-437.8521296374899	117.5604630204806	1219.733334119794	-485.33746133732143	-82.10848506512296	1242.0496154344291	-281.4558831472259	-130.91954383073102	1050.6625753287944	-428.1647238859019	-2.2380003786968414	1217.9619308891483	-481.0171145793376	146.24271507325588	815.5016618822082	-84.97546272370873	201.88722225785105	470.09144367306095	-288.83170420952877	216.07869449009672	108.73055257491427	-176.22668186046468	-42.40509917046499	807.9816939782762	-76.92765383947537	-91.48655427815356	470.02167016001897	-291.30574418077305	-100.63830045679855	107.32447018758673	-177.62165730757533	210.564653579079	53.83106643512535	-149.50077624046736	-105.11664499132986	44.79392211870661	-143.20657904544046	253.17194074068107	35.9588142420037	-364.0530814674759	303.85440508929383	33.35102068013545	-293.4576270268772	-104.27189554757682	50.852069681862304	-368.57379647761024	-180.39225988502574	32.27546443708686	-310.5203703386447	-88.20491575703728	832.7946301330522	-141.4894128251023	188.21387557389016	843.2581115261124	-149.12700151607012	95.58881617684678	928.9373837235818	-55.34007841021574	1.4541511365796858	921.7507410428946	-55.42159231900509	65.57224555121154	1256.7604242554553	-521.502466728119	80.81414492512596	1298.2676149649233	-491.27202052516367	48.545203680048644	1256.9431193029482	-522.4435546403162	41.8856269575008	1294.358706996042	-484.8740036826011	-140.58829469022456	474.1388593063168	-285.613646648845	115.68368865091422	1201.335235764919	-507.69030465157107	-151.72288321226486	97.64293833106453	-163.45555971046596	185.9699896835098	93.01825445252493	-191.81847317287023	244.78294560176295	463.57802409874006	-278.65003392538375	56.90654124049432	1089.7307872407455	-307.73623725576914	-73.32718364316668	90.87052854477773	-190.44189151761628	159.96921432440098	466.7913409061644	-298.90521306245375	-112.25457482032489	1037.3368922967204	-403.2920486666304	50.08251650676205	880.9409899746832	-248.93859769062325	277.1777437699994	1061.510011327399	-453.55914136561626	125.07166827062538	1223.9251132017766	-454.5229223932432	-8.421616675588911	1202.6422486993104	-506.38237697901	-156.37443166404037	1076.804826608179	-436.57017096832095	-44.549746362713	478.04549452895566	-304.5259872853996	223.14952793040123	1023.4351364607821	-415.80391361132394	262.3769915688955	95.2247519259381	-165.5990011316537	-14.62680980526622	1226.2791586374954	-455.99133139725683	55.74775650947629	1357.09859128218	-403.7170181225347	56.28112528233259	1165.0695083696726	-129.40126724418752	85.39956006798064	1467.4467155404054	-414.7710609652291	16.188517420804434	1465.73642646839	-406.55931240249345	-23.96917088601215	1448.4486026067468	-299.3455820549129	148.03169967645013	1449.288871493683	-317.4919982098539	59.41911348006101	1350.3441552070312	-249.5902482585368	56.12003279562379	1258.298512947665	-162.6685221485633	64.23281909829797	1018.4777939029601	-93.83351468429538	56.04291363300081	1151.78320422431	-138.32867033565685	210.71559062734454	1165.3697278586872	-395.79432591313866	265.4433032652126	1110.1787330662753	-353.0553925703505	-114.26379455311215	1216.3359215394223	-320.4306938979592	-107.2110033453174	1079.4062706638344	-358.5636171318229	94.43061057131901	919.2518688715137	-220.936040383292	56.26730077793806	998.6055977529024	-307.3983693483729	-1.0070875977504916	1130.8881999564815	-328.7434150052005	-12.02721072002371	950.8536024331281	-237.13146714873068	131.42643750997775	1164.521237852261	-348.4335235229449	158.05561970427215	628.4346529362923	-198.0336528505048	258.9338374752388	597.6902480317945	-191.9648917079933	-28.49469152628749	563.9745622417247	-227.82838083804668	-156.51192110399637	736.796462326267	-143.60488066457506	-165.14519023178	196.3737794920498	-206.12071534086306	-48.68882064878679	325.5338523597471	-257.45402584604403	263.4814383938769	321.0552191944312	-228.71100424848802	172.01842268075802	276.33604165995314	-241.92335954937687	271.506768262754	29.375767050433957	-341.8330663744899	291.1950431236509	31.51579733371853	-321.08006867971625	225.14135578699896	50.35840734917845	-288.3718711920939	257.76136406099954	56.93242042168023	-268.46273233078506	284.5920632264186	43.90272268673705	-250.15778522808725	-151.61145247772205	35.283202775017166	-341.4329366469316	-166.9156234340249	61.40187363995896	-235.23715422888924	-166.08306759221526	34.329005655201115	-333.038432689846	-133.8065208437272	36.40589654666361	-351.1040787457044	-139.05431935782147	50.04991629985239	-292.25923466339594	-108.05859620781266	62.5524949046023	-263.47150258447283	
48	1.6	70.59649961638453	1620.7661034906996	-263.9000886745159	52.96498399720237	1458.0859330475455	-402.9897848458649	59.843535202226725	1301.3485604863386	-266.3069787393654	211.22169100287815	1270.3986862041045	-276.0588209381721	251.50746465302203	1059.5909673759154	-427.3586224490735	115.9401971768535	1240.0736326840922	-474.4752932531128	-76.12043843491503	1264.0387541789087	-271.82296105370386	-132.93986744511443	1072.9924450082553	-416.07226874122006	-5.8088354186764946	1240.792172237974	-471.04809466174515	149.25479973649053	831.4220033931879	-91.7162755682227	197.91274288267684	475.4881308070907	-277.69713129842853	214.8533097309806	111.17413678575538	-175.46546539847785	-39.373071625682556	823.3619238996095	-83.72401506324567	-81.31412800162491	473.14950876967714	-276.5081892571206	-100.16351111176755	107.28706846871316	-174.79063685074294	209.62284870567606	56.40332712834409	-149.63420151513898	-106.07040448555752	45.12509520275139	-141.342434926101	250.99012110281615	35.64309838050203	-364.16916759924214	302.08283848301124	34.006702636588	-293.8407422858514	-106.99031516797194	47.40953617468644	-366.77919444065014	-183.23860084673044	32.68060495324246	-307.79735035382197	-85.24721918146669	848.9278845569629	-147.9382655455151	191.14475183002617	860.1274461529044	-155.50223177805285	98.34877754351828	944.3359299367517	-60.55927694042087	4.23083272615904	936.9347011133194	-60.71392182462454	62.897444281605345	1276.0041307760525	-510.2125769582307	77.91325087788634	1317.9866141114305	-480.53027751893137	43.644978317291184	1280.2290231278712	-513.6353216154506	38.28118690078035	1317.1814247832208	-475.40579013454783	-130.80196681030887	476.6867575812132	-273.71850951648923	114.03968039530909	1221.4655557099736	-496.65161884212	-151.68378718684022	98.2722625405545	-161.8122161939104	184.5908609047849	95.79040084897733	-191.08722053085683	241.04761968789572	468.9380924876295	-268.49228053918597	57.091908623312214	1113.5347922036863	-306.2358181171041	-72.98604782813693	90.6606944938177	-187.67228582542546	155.9672570039244	472.0700689018283	-287.61005523377435	-113.31524549730679	1059.522320224458	-392.02991401651286	50.56312242703916	902.5354423706162	-255.9013518417188	278.3775578308387	1084.5801040964448	-443.6516917686047	123.80845237959204	1244.6331821010128	-443.8024046428547	-12.84629157838564	1225.7964343212866	-496.3843999299417	-158.5166584064273	1099.3455201617558	-423.3772910746184	-34.2398295588173	479.68672239080354	-289.9387145872313	225.44448335839962	1046.0041580556026	-404.8678363691418	261.3364786925345	97.55162580450121	-165.8410818287434	-17.35563574193813	1248.8110954974657	-445.5271822102799	56.133758154214775	1380.0764874791776	-391.3343426504091	59.53462248270336	1181.5303291920125	-124.98925766928494	85.94685301494455	1490.2486179669277	-403.6392556271143	16.82953234850574	1488.7941143202288	-394.62777791748766	-22.150212824447514	1472.5017748608984	-286.8250325894772	149.6345478839145	1472.7251856603827	-306.93085317211023	61.32911758160624	1371.5498088037857	-237.55617129542844	59.130567107687106	1276.0400477284961	-154.41940098653538	67.60103613938955	1033.589787888847	-95.56215423316185	59.113647356842904	1168.6202374075312	-134.446184159969	210.6893423998499	1187.9237213138854	-386.38708930985047	266.84777689319174	1134.2252566785396	-343.60286334873337	-110.1712457513867	1238.5778111511727	-309.3259843489644	-105.958160100471	1101.5720531134161	-347.6047403487167	95.46844046279253	939.5636421626076	-227.07350181732417	56.178387406087374	1022.4736128965757	-309.6048008227695	-1.0219341680468008	1155.6555514419117	-324.6163910374529	-11.13601793137662	972.0576327734265	-240.25906782653615	131.1842485057985	1189.7441807567493	-345.0372332885504	157.33077200077904	638.6832407721928	-195.1682594150965	257.9613203667254	607.1487820797379	-189.04177870216427	-20.614487907008936	570.3437922233376	-218.38636974242647	-151.32585089467094	747.7493288547946	-149.16763414673346	-162.2536825493614	198.58613731723358	-201.4815578365686	-42.19576159169071	326.75505503893686	-246.6295738774737	260.8198179641703	325.06223153448343	-222.6072868188854	169.33998247703104	280.38430867215493	-235.84274386611617	269.45630330388724	29.36707788124182	-341.9690963621305	289.26395565233867	31.793912352223252	-321.3617628901786	223.39397409580283	51.05656172876241	-288.5280056487306	256.1264940198512	57.90962656479931	-268.89960684375876	283.06819807009987	45.1372476182303	-250.57635800203255	-154.63943937147997	34.088351105939665	-338.99148977731164	-168.01297055623962	62.52254682400146	-233.1302976561745	-169.06193327927372	33.819656496773504	-330.46357646058067	-136.89106427630782	34.378582727849114	-348.8260191700938	-141.10259170573792	49.18452735971244	-290.17909785609396	-109.40605022452664	60.985435436998706	-261.862129969523	
49	1.6333333333333333	74.5436995117667	1640.1717330457705	-253.67817830347965	52.68778608736546	1477.2566221197217	-391.89046957968867	61.13058324623704	1321.0542170712886	-257.7705222291127	213.6663159332569	1294.2461969373185	-268.6716771825631	252.79883736560893	1079.1887612859246	-414.18254602323276	112.1243857301097	1255.8800363750336	-460.6943630140892	-71.83360639416833	1284.832160349868	-263.77941546891276	-136.95686142382468	1091.5717991544273	-401.4180618370451	-9.91749531110972	1258.4457111723402	-459.34462002615606	151.89587156966	844.8065759054891	-100.65901245485055	193.62739552838752	479.2681679811449	-267.92652650368444	213.993938788025	112.68548849662069	-174.83879597383245	-36.75973985583376	836.8865115917339	-93.1992656102316	-75.17834952115143	475.79214035413366	-263.0292340346226	-98.58491254210277	107.37414545202051	-172.04902314232862	209.34486339651303	58.16615182507014	-149.5433308589044	-105.03230822302919	45.70480780611198	-139.33091366278757	248.25377211662746	34.15525984658061	-364.19901767981366	300.3386828627496	35.20259172368338	-294.5908562625483	-107.32985170597057	43.29482955062991	-364.7565349780912	-183.4522977765993	31.150886767136303	-305.0279967936189	-82.5069002945804	865.4896333630788	-156.21183943504866	193.92023180119892	876.2946182568256	-163.02787548795968	101.2541902840361	956.307826863041	-64.4012185622835	7.11751607383352	949.1698796636274	-64.97211102242825	56.98319714574707	1289.8330066730502	-495.1665678160533	72.47226478385252	1332.926473674456	-467.3801657415241	38.92342371144058	1297.469012478334	-503.0065414791166	34.5428385992089	1334.550929242198	-464.7771124106647	-124.90851224176663	478.47439222830934	-261.7559871000139	109.62957034260081	1236.5915452321372	-482.22090279534444	-150.3344352638811	98.48465098087101	-159.9243061709796	183.091270933991	97.69575792735569	-189.56453774498726	237.0683060673146	472.7756361886991	-260.06070532132725	58.56800644588948	1134.7307377971972	-304.16976242496526	-71.41269404955554	90.86345457105116	-185.0895496355138	151.57293421202928	475.544217133109	-277.2898391024832	-116.6790437593385	1078.3181167797657	-377.8012270941856	52.805140012717274	922.0985603290212	-261.1435419307326	278.4827112361648	1104.1436889196343	-432.3350438973704	121.19248210923422	1261.481387558829	-430.5294907370057	-17.54637205577704	1243.4290924089973	-484.49671159008284	-162.3613458978277	1118.1795153668959	-408.3938602704189	-28.280048247321506	481.1153060936321	-277.6401525487167	227.90660317691146	1065.858399467913	-390.2577895801761	260.80307593590845	98.79760667673776	-167.42812938655905	-20.90779751149628	1266.6004721412921	-433.62183185329894	55.49288762086567	1399.2567173404814	-380.0790208908051	61.911998828307446	1196.4104823256114	-120.69196429846006	85.89911716083687	1509.1563104918068	-393.3330947960131	16.979634624176995	1508.2715323662464	-382.8522350018809	-19.826783305977187	1492.5814178393543	-274.19957436098287	151.4884168645901	1491.3952006561847	-297.94811167653904	62.62588109021679	1390.2204233835057	-226.6123589689691	61.124913157325274	1291.882009786077	-146.8253038243882	70.4810883702889	1047.5592027264972	-96.45784634210447	61.46499702790073	1183.83486441988	-130.58818439857959	210.76691136971075	1208.000995210662	-376.04061432397435	269.65954071081046	1156.9818260712914	-333.65562347050695	-107.64172702658045	1259.10959748304	-299.4209938765346	-107.02418346415641	1121.226532225889	-334.65549319654156	97.79416486505475	958.2151256613412	-231.30729792803015	57.83910862291209	1043.8390345964783	-310.6881931811511	0.2539737104860981	1177.3210681397436	-320.7456452403899	-8.957750476129858	990.8860351499055	-242.74711307041787	132.26241967455906	1212.4196837072834	-340.7300782669045	156.23602369192093	646.8035379769697	-193.8884335469745	256.78099810275324	614.8657642710702	-188.48937373817822	-15.632243269198643	576.1295495734512	-211.78866157294345	-147.8619254001453	756.6009197210699	-154.3881918915545	-159.5151394083896	199.98525435243758	-196.82410310357463	-37.761926616047354	328.23873875410504	-236.90799164541585	258.4262644611466	327.55210848991436	-218.90116460241984	166.39637346806978	283.28431676814733	-229.4233409541054	267.17755139152973	28.78770103124888	-342.1465490732867	287.2005745439489	32.12014748139251	-321.8766661326901	221.3255040945814	50.38595061938571	-288.48811607631404	254.14279563285598	58.44537814014314	-269.46898355136136	281.6489685291421	46.71874575557444	-251.28582995473337	-155.02960155327492	31.40108175486323	-336.4135963984495	-167.23624059694336	62.27257659183506	-231.0955277227492	-169.4006688227498	31.56548294655192	-327.7966810202286	-137.34107065584774	31.172146906847313	-346.35696025666704	-140.92330051019198	47.272211066428746	-288.009981734475	-108.84716542847944	59.100253504892294	-260.1352294682855	
50	1.6666666666666667	79.14802182675497	1656.3970525498532	-246.3806529138989	51.54780152527262	1492.1323342891312	-381.9423803797165	62.32091112703133	1337.6050275031935	-248.33952194402121	213.00299761605535	1311.6987689487394	-259.789586425997	255.1728732100777	1094.4868522414604	-401.1938036407193	110.19129066042157	1268.3067173903892	-445.2330174888346	-68.70798376276038	1301.5722044767494	-256.87562743037864	-142.4106147771868	1106.7564457595156	-387.83266185801637	-11.39982933314107	1269.9522972809891	-447.36985478508075	153.3603741934878	855.2581611651956	-109.37403666597999	189.22350054814035	481.68594866547454	-258.31054607312325	214.1539181020095	113.3420176087333	-173.66891747433738	-35.36861628190846	847.4635296855425	-103.90349388843762	-69.76033141449001	477.14358301424204	-251.0220462962836	-96.41549183513453	106.74594432751894	-169.46116956973628	210.3653163739004	58.894981199739725	-148.97344343076136	-103.08555494295429	45.16713390374355	-137.62314583562474	246.0115222538406	33.700023794248885	-364.05959389993876	299.2882167413443	36.68699732723721	-295.41629283579414	-106.56614105825365	41.53957401725827	-363.0172978808864	-182.34163286712467	29.52743560254358	-302.8227483968346	-80.49855243045151	878.6424464879838	-166.13443260510584	195.99789301234773	889.1011846649458	-170.07091046850095	102.60303656627227	965.345666924637	-69.17241705742029	8.462188528922027	958.4429980240163	-70.85869480364744	53.47001258542698	1300.9661345210063	-478.3652806275081	69.05765514128356	1344.6076540154065	-451.5047997956767	38.373253259120645	1307.354200484749	-491.3966044578723	34.8693635474962	1344.9140490415734	-453.5452127135172	-119.7012030542814	478.88097034502084	-251.13030359843518	107.37588805184409	1248.7486996147195	-466.47494202922206	-148.13860985299664	98.11233957253474	-157.0424374700093	182.78493622429372	98.53624920684612	-187.57181543598017	232.88459071222042	475.0950321585596	-251.57866993958106	60.50398866092625	1153.2599759587292	-302.09355419494955	-69.56270499479062	90.28456250831124	-183.206657916915	147.10370132846856	477.6917303787647	-267.354058202757	-122.20781901460226	1093.5085935084417	-364.1483564406498	55.26049802371647	939.0732979916895	-267.5467459229272	279.81911751717575	1119.6962810489733	-420.4024035383348	120.06788992288878	1274.3824709074067	-415.415857450911	-19.378176010716118	1254.8693893604386	-472.3734181803585	-167.02634701482089	1133.993590492867	-395.19634506655774	-23.007788126944074	481.3658099444406	-266.6399868262301	231.11255174203313	1081.0481138805083	-376.49123126285025	261.24652822249595	99.49145800298903	-168.25277199182742	-22.19959841720459	1278.6265931515254	-421.7364726597438	54.28196605896978	1414.2490655073432	-369.3692006514087	63.020277232446254	1207.6294316136616	-116.30521721141912	84.88384675342347	1523.7984030722346	-384.88040246831895	16.362366084877873	1523.4746810208221	-372.02628956620674	-16.77300366006604	1509.2071521130288	-262.00457511949645	153.61160012708447	1506.651651945778	-291.6162984146117	63.49126310319295	1405.4862099505094	-214.46022893459966	62.02357357608922	1304.0588741672418	-138.63798875667277	71.97314963896115	1057.9610475906868	-97.95729889301703	62.646976446300016	1195.454615518595	-126.69346288452954	210.39666666806673	1222.9707928926339	-365.1237372724714	271.4499888587247	1174.5259387590058	-322.77550451733026	-105.91737054470654	1276.0606002166207	-291.2094800897594	-110.44299365505401	1137.283854731571	-322.4204498781463	100.0324926476866	974.1139143669956	-236.14222704129813	60.08314827048124	1062.6962424697147	-312.21066901013353	2.1140665024366316	1196.29852704418	-317.1774082930965	-6.7813678155476325	1006.8919175171327	-246.66034706075706	134.07985897413974	1232.557726445881	-335.28321565045707	154.5456121390087	652.8397150366758	-192.68749766999605	254.94407211685976	620.4020733956576	-187.54826093407445	-11.491845481988356	580.255341252544	-206.53727506377257	-145.47796185944023	762.7396606239553	-160.7484991389374	-156.54051606432128	200.6410752711022	-191.18213804159083	-33.753142165544524	328.552257755625	-229.1493530239145	256.255516859362	329.2496466109207	-214.83613018002112	164.0481468682219	284.8406782882069	-222.92926721855656	265.44959943302433	29.00705119792458	-342.30255721960543	285.74426702139596	33.01988263404768	-322.43000174041146	220.05229751882308	50.02870011664172	-288.03196376483754	252.99885768484643	59.06169950057042	-269.6856972991854	281.1002700557775	48.17952043673437	-251.89189695234398	-154.0856153925735	29.679655832354815	-334.35911512113387	-165.8142119793607	61.086416697940294	-229.14503710004664	-168.4113957321968	29.854601235094076	-325.66732332554074	-136.4492627988983	29.44130594551597	-344.39451634947494	-139.7641825496681	45.84584672462409	-286.11659009764554	-107.57133484459177	57.90339458904494	-258.47569756967596	
